<svg xmlns="http://www.w3.org/2000/svg"  viewBox="0 0 64 64" width="64px" height="64px"><path d="M 23 19 C 19.14 19 16.006812 19.598625 13.257812 22.515625 L 0.27148438 36.314453 C -0.001515625 36.605453 -0.07596875 37.029484 0.08203125 37.396484 C 0.24003125 37.763484 0.601 38 1 38 L 11 38 L 20 38 C 20.266 38 20.520031 37.895031 20.707031 37.707031 L 23.707031 34.707031 C 24.414031 34.000031 25.407 34 26 34 L 40.037109 34 L 38.207031 36.392578 C 37.975031 36.694578 37.934516 37.101359 38.103516 37.443359 C 38.271516 37.784359 38.619 38 39 38 L 50 38 C 50.312 38 50.604969 37.853422 50.792969 37.607422 L 63.792969 20.607422 C 64.024969 20.305422 64.065484 19.898641 63.896484 19.556641 C 63.728484 19.215641 63.381 19 63 19 L 52 19 L 23 19 z M 23 21 L 49.966797 21 L 46.882812 25 L 24 25 C 21.736 25 20.729578 25.093359 18.517578 27.443359 L 10.564453 36 L 3.3144531 36 L 14.714844 23.886719 C 16.695844 21.781719 18.941 21 23 21 z M 52.494141 21 L 60.976562 21 L 49.505859 36 L 41.023438 36 L 52.494141 21 z M 24 27 L 45.388672 27 L 41.566406 32 L 26 32 C 25.277 32 23.585969 31.999969 22.292969 33.292969 L 19.585938 36 L 13.294922 36 L 19.978516 28.810547 C 21.681516 26.999547 22.127 27 24 27 z M 8 42 C 7.448 42 7 42.448 7 43 L 7 45 C 7 45.552 7.448 46 8 46 C 8.552 46 9 45.552 9 45 L 9 43 C 9 42.448 8.552 42 8 42 z M 13 42 C 12.448 42 12 42.448 12 43 L 12 45 C 12 45.552 12.448 46 13 46 C 13.552 46 14 45.552 14 45 L 14 43 C 14 42.448 13.552 42 13 42 z M 18 42 C 17.448 42 17 42.448 17 43 L 17 45 C 17 45.552 17.448 46 18 46 C 18.552 46 19 45.552 19 45 L 19 43 C 19 42.448 18.552 42 18 42 z M 23 42 C 22.448 42 22 42.448 22 43 L 22 45 C 22 45.552 22.448 46 23 46 C 23.552 46 24 45.552 24 45 L 24 43 C 24 42.448 23.552 42 23 42 z M 28 42 C 27.448 42 27 42.448 27 43 L 27 45 C 27 45.552 27.448 46 28 46 C 28.552 46 29 45.552 29 45 L 29 43 C 29 42.448 28.552 42 28 42 z M 33 42 C 32.448 42 32 42.448 32 43 L 32 45 C 32 45.552 32.448 46 33 46 C 33.552 46 34 45.552 34 45 L 34 43 C 34 42.448 33.552 42 33 42 z M 38 42 C 37.448 42 37 42.448 37 43 L 37 45 C 37 45.552 37.448 46 38 46 C 38.552 46 39 45.552 39 45 L 39 43 C 39 42.448 38.552 42 38 42 z M 43 42 C 42.448 42 42 42.448 42 43 L 42 45 C 42 45.552 42.448 46 43 46 C 43.552 46 44 45.552 44 45 L 44 43 C 44 42.448 43.552 42 43 42 z M 48 42 C 47.448 42 47 42.448 47 43 L 47 45 C 47 45.552 47.448 46 48 46 C 48.552 46 49 45.552 49 45 L 49 43 C 49 42.448 48.552 42 48 42 z"/></svg>