<?xml version="1.0" standalone="no"?>
<!DOCTYPE svg PUBLIC "-//W3C//DTD SVG 20010904//EN"
 "http://www.w3.org/TR/2001/REC-SVG-20010904/DTD/svg10.dtd">
<svg version="1.0" xmlns="http://www.w3.org/2000/svg"
 width="64.000000pt" height="64.000000pt" viewBox="0 0 64.000000 64.000000"
 preserveAspectRatio="xMidYMid meet">

<g transform="translate(0.000000,64.000000) scale(0.100000,-0.100000)"
fill="#000000" stroke="none">
<path d="M188 560 c-7 -11 -23 -20 -35 -20 -13 0 -32 -9 -43 -20 -19 -19 -20
-33 -20 -220 0 -187 1 -201 20 -220 19 -19 33 -20 210 -20 177 0 191 1 210 20
19 19 20 33 20 220 0 187 -1 201 -20 220 -11 11 -30 20 -43 20 -12 0 -28 9
-35 20 -7 11 -21 20 -32 20 -11 0 -25 -9 -32 -20 -10 -16 -24 -20 -68 -20 -44
0 -58 4 -68 20 -7 11 -21 20 -32 20 -11 0 -25 -9 -32 -20z m52 -35 c0 -28 -4
-35 -20 -35 -16 0 -20 7 -20 35 0 28 4 35 20 35 16 0 20 -7 20 -35z m200 0 c0
-28 -4 -35 -20 -35 -16 0 -20 7 -20 35 0 28 4 35 20 35 16 0 20 -7 20 -35z
m-255 -27 c7 -15 19 -23 35 -23 16 0 28 8 35 23 8 19 17 22 65 22 48 0 57 -3
65 -22 14 -31 57 -31 70 0 8 18 17 22 40 20 28 -3 30 -6 33 -50 l3 -48 -210 0
-211 0 0 43 c0 51 4 57 39 57 18 0 30 -7 36 -22z m-55 -236 c0 -94 4 -142 12
-150 17 -17 339 -17 356 0 8 8 12 56 12 150 0 88 4 138 10 138 7 0 10 -55 8
-157 l-3 -158 -205 0 -205 0 -3 158 c-2 102 1 157 8 157 6 0 10 -50 10 -138z
m360 18 l0 -120 -170 0 -170 0 0 120 0 120 170 0 170 0 0 -120z m0 -150 c0 -6
-63 -10 -170 -10 -107 0 -170 4 -170 10 0 6 63 10 170 10 107 0 170 -4 170
-10z"/>
</g>
</svg>
